<?xml version="1.0" standalone="no"?>
<!DOCTYPE svg PUBLIC "-//W3C//DTD SVG 20010904//EN"
 "http://www.w3.org/TR/2001/REC-SVG-20010904/DTD/svg10.dtd">
<svg version="1.0" xmlns="http://www.w3.org/2000/svg"
 width="292.000000pt" height="292.000000pt" viewBox="0 0 292.000000 292.000000"
 preserveAspectRatio="xMidYMid meet">
<metadata>
Created by potrace 1.14, written by Peter Selinger 2001-2017
</metadata>
<g transform="translate(0.000000,292.000000) scale(0.100000,-0.100000)"
fill="#000000" stroke="none">
<path d="M2470 2300 c0 -4 -10 -6 -22 -5 -13 1 -31 -4 -40 -12 -9 -8 -21 -12
-26 -9 -6 3 -12 -1 -16 -9 -3 -9 -12 -12 -22 -8 -12 4 -15 3 -10 -5 4 -7 1
-12 -8 -12 -9 0 -16 -5 -16 -11 0 -5 -4 -8 -9 -4 -5 3 -12 -4 -16 -15 -4 -11
-11 -18 -16 -15 -5 4 -9 -3 -9 -15 0 -12 -5 -18 -10 -15 -6 4 -13 -7 -16 -24
-4 -18 -11 -28 -17 -24 -6 3 -7 1 -3 -6 4 -6 0 -18 -9 -27 -9 -9 -14 -23 -11
-30 3 -8 2 -14 -2 -14 -4 0 -12 -11 -19 -25 -6 -14 -7 -25 -2 -25 5 0 9 -5 9
-11 0 -5 -4 -7 -10 -4 -9 6 -14 -10 -13 -42 1 -7 -3 -13 -7 -13 -5 0 -12 -9
-15 -20 -4 -11 -11 -18 -16 -15 -5 4 -9 -1 -9 -9 0 -10 -9 -16 -24 -16 -13 0
-27 -6 -29 -12 -3 -7 -6 -8 -6 -3 -1 13 -141 7 -158 -7 -7 -6 -13 -6 -13 -1 0
11 -110 11 -127 0 -8 -5 -13 -3 -13 4 0 7 -7 4 -16 -7 -8 -10 -13 -12 -9 -4 4
9 0 7 -9 -4 -8 -10 -20 -15 -27 -10 -8 4 -10 3 -5 -4 4 -7 1 -12 -8 -12 -9 0
-16 -4 -16 -9 0 -5 -8 -7 -18 -4 -14 3 -17 12 -14 34 2 16 8 29 13 29 5 0 6 7
3 15 -4 8 -1 15 5 15 6 0 8 7 4 17 -4 9 -2 14 3 10 5 -3 9 7 8 21 0 15 4 30
10 34 8 5 7 8 -2 8 -10 0 -10 5 -2 20 8 15 8 20 -1 20 -8 0 -8 4 1 15 10 12 9
16 -5 21 -13 5 -14 9 -3 15 8 6 9 9 1 9 -6 0 -10 8 -8 18 1 9 -4 28 -13 42
-18 29 -89 102 -78 80 6 -12 5 -11 -6 1 -7 9 -23 15 -35 14 -12 -1 -25 5 -28
14 -5 13 -7 14 -15 1 -7 -11 -10 -11 -10 -2 0 10 -5 10 -20 2 -14 -7 -20 -7
-20 0 0 12 -22 9 -32 -5 -5 -6 -8 -5 -8 3 0 10 -5 10 -20 2 -14 -8 -20 -8 -20
0 0 7 -6 8 -19 1 -10 -6 -44 -11 -75 -12 -31 -1 -59 -6 -62 -10 -3 -5 -23 -8
-44 -7 -21 1 -47 -5 -56 -13 -14 -11 -16 -11 -10 0 6 9 1 8 -16 -3 -14 -9 -28
-13 -31 -9 -4 3 -7 1 -7 -6 0 -7 -4 -9 -10 -6 -5 3 -10 2 -10 -4 0 -5 -9 -8
-20 -6 -11 2 -23 -1 -26 -7 -5 -7 -2 -8 7 -4 8 4 3 -1 -11 -12 -13 -11 -29
-18 -34 -15 -5 3 -6 1 -2 -5 4 -7 1 -12 -9 -12 -9 0 -14 -4 -11 -9 3 -5 -1
-12 -10 -15 -8 -3 -12 -10 -9 -16 3 -5 2 -10 -3 -10 -9 0 -21 -26 -26 -55 -1
-5 -6 -9 -11 -8 -6 1 -11 -10 -12 -24 0 -15 -8 -30 -17 -35 -9 -5 -16 -16 -16
-24 0 -8 -4 -12 -10 -9 -5 3 -10 1 -10 -5 0 -6 -4 -8 -10 -5 -5 3 -10 0 -10
-7 0 -10 -2 -10 -9 1 -7 11 -9 11 -14 0 -5 -12 -7 -12 -15 0 -8 11 -10 11 -15
0 -3 -8 -6 -9 -6 -4 -1 13 -121 7 -121 -6 0 -6 -4 -7 -10 -4 -6 3 -10 1 -10
-6 0 -9 -3 -9 -14 0 -11 9 -15 9 -19 -1 -4 -10 -6 -10 -6 0 -1 10 -5 10 -17
-2 -8 -9 -19 -14 -24 -11 -5 3 -11 1 -15 -5 -4 -6 -11 -8 -16 -5 -5 4 -9 1 -9
-4 0 -6 -9 -11 -19 -11 -10 0 -22 -7 -25 -16 -3 -8 -10 -12 -16 -9 -6 3 -13
-1 -16 -9 -3 -9 -10 -13 -15 -10 -5 3 -12 -1 -15 -10 -3 -9 -12 -12 -21 -9 -9
4 -14 2 -11 -3 5 -11 -38 -55 -46 -46 -3 3 -6 -2 -6 -11 0 -9 -5 -17 -11 -17
-5 0 -15 -13 -20 -30 -6 -16 -16 -30 -22 -30 -6 0 -8 -3 -4 -6 3 -4 -4 -15
-16 -26 -12 -11 -17 -17 -10 -14 7 4 6 -4 -3 -24 -9 -16 -20 -30 -25 -30 -6 0
-7 -4 -4 -10 3 -5 0 -10 -7 -10 -10 0 -10 -2 1 -9 10 -6 10 -10 1 -16 -6 -4
-9 -13 -6 -21 3 -8 1 -14 -4 -14 -6 0 -10 -5 -10 -11 0 -5 4 -7 10 -4 6 3 7
-1 4 -9 -3 -9 -10 -16 -15 -16 -5 0 -9 -15 -9 -32 0 -18 -4 -40 -10 -48 -5 -9
-5 -19 2 -27 7 -9 7 -13 -2 -13 -9 0 -9 -4 -2 -12 5 -7 6 -22 2 -33 -5 -13 -2
-24 9 -33 12 -10 13 -12 1 -6 -12 5 -12 4 -3 -6 6 -7 9 -19 6 -28 -4 -10 -2
-13 5 -8 8 5 11 -2 8 -23 -2 -17 1 -31 6 -31 5 0 6 -5 3 -10 -3 -5 -1 -10 5
-10 6 0 8 -5 5 -10 -3 -5 -1 -10 5 -10 6 0 9 -4 6 -9 -3 -5 2 -12 11 -15 15
-6 15 -8 3 -16 -8 -6 -10 -10 -4 -10 15 0 64 -46 64 -60 0 -6 4 -9 9 -5 5 3
16 -2 24 -10 9 -8 23 -15 31 -15 9 0 16 -4 16 -8 0 -7 20 -12 60 -14 8 -1 18
-6 22 -11 4 -7 12 -6 22 2 13 11 16 11 16 1 0 -8 3 -10 7 -7 3 4 12 2 20 -4
10 -9 13 -8 13 1 0 9 4 9 17 -1 10 -8 14 -9 10 -2 -4 6 -3 14 3 18 5 3 10 2
10 -3 0 -13 63 -7 68 7 3 8 9 8 24 0 15 -8 19 -8 13 1 -4 7 -2 10 6 9 8 -1 21
0 29 4 36 13 62 15 66 3 4 -10 18 -15 62 -18 6 -1 12 -5 12 -9 0 -4 17 -7 38
-7 59 0 64 -1 56 -14 -5 -9 -3 -9 9 1 9 7 26 11 38 8 13 -3 22 0 26 10 5 12 7
12 14 1 7 -10 9 -10 9 0 0 6 9 12 19 12 11 0 21 4 23 9 2 5 10 11 18 13 20 4
39 21 33 31 -2 4 3 7 11 7 9 0 16 7 16 16 0 8 5 12 10 9 9 -5 12 1 9 21 0 4 5
10 12 15 7 4 14 15 15 25 2 9 9 21 16 25 10 7 10 9 0 9 -10 0 -10 5 -2 20 8
15 8 20 -2 20 -6 0 -2 9 10 20 23 22 42 26 42 9 0 -5 5 -7 10 -4 6 4 10 3 9
-2 -5 -26 2 -63 11 -58 6 3 10 -3 10 -15 0 -12 7 -28 15 -37 8 -8 13 -18 11
-21 -2 -4 8 -16 22 -26 16 -12 23 -14 18 -5 -4 8 2 3 13 -11 22 -26 25 -78 6
-92 -7 -5 -7 -10 0 -15 13 -11 15 -43 3 -43 -6 0 -4 -8 3 -17 10 -11 10 -14 2
-9 -7 4 -13 2 -13 -3 0 -6 5 -11 11 -11 6 0 9 -7 5 -15 -3 -8 -1 -15 5 -15 6
0 9 -7 5 -15 -3 -8 -1 -15 4 -15 6 0 10 -7 10 -15 0 -8 5 -15 11 -15 6 0 8 -7
5 -16 -3 -8 -2 -12 4 -9 6 3 10 -1 10 -9 0 -8 5 -18 12 -22 7 -5 8 -2 3 7 -5
8 5 3 21 -11 16 -14 30 -28 32 -33 2 -4 8 -5 13 -1 5 3 9 0 9 -6 0 -6 5 -8 10
-5 6 3 10 2 10 -4 0 -6 6 -8 14 -5 8 3 17 1 21 -5 3 -6 17 -11 31 -11 13 0 24
-4 24 -9 0 -10 19 -9 37 2 6 4 14 1 16 -5 4 -10 6 -10 6 0 1 6 9 12 19 12 28
0 112 31 112 41 0 5 11 14 25 21 13 6 22 15 19 19 -3 5 0 9 6 9 6 0 9 4 6 9
-3 5 2 12 11 15 15 6 15 8 3 16 -10 7 -11 10 -2 10 6 0 12 6 12 14 0 8 7 17
16 20 13 5 14 9 4 21 -9 11 -9 15 -1 15 7 0 9 4 6 10 -3 6 -1 10 6 10 7 0 10
3 6 6 -7 7 60 74 74 74 6 0 8 4 5 8 -3 5 6 15 20 23 23 12 27 11 40 -6 10 -14
14 -15 14 -4 1 10 3 9 11 -4 6 -9 14 -15 20 -12 5 4 9 1 9 -5 0 -7 7 -10 15
-6 8 3 15 1 15 -4 0 -5 7 -7 15 -4 8 4 15 1 15 -6 0 -6 5 -8 11 -4 6 3 15 0
20 -7 7 -11 9 -11 9 -1 0 7 4 10 10 7 18 -11 51 -14 45 -4 -5 8 15 14 38 10 4
0 7 3 7 8 0 6 9 8 20 6 13 -3 18 0 14 7 -5 8 -1 9 10 5 9 -4 15 -3 13 1 -6 9
19 33 26 26 3 -3 8 4 12 15 3 12 11 18 17 15 7 -5 9 0 6 14 -4 14 0 25 10 31
8 5 16 18 17 31 1 12 7 25 14 29 7 5 12 10 10 12 -1 2 0 15 4 28 4 16 10 21
19 15 10 -6 10 -4 -1 9 -9 12 -10 17 -2 17 7 0 9 5 6 10 -4 6 -1 17 5 25 7 8
9 15 4 15 -5 0 -2 5 6 10 13 9 13 10 0 10 -13 1 -12 2 1 10 9 5 16 20 15 32
-1 13 4 29 11 36 7 7 9 20 6 29 -5 11 -3 14 6 8 10 -5 11 -2 7 13 -4 11 -2 23
4 27 6 3 8 11 5 16 -4 5 -1 9 5 9 6 0 9 4 5 9 -3 5 -1 12 5 16 5 3 10 15 10
26 0 10 5 19 12 19 6 0 8 3 5 7 -10 9 25 32 50 33 12 0 25 5 28 11 4 6 13 8
20 5 8 -3 15 0 17 5 2 5 13 11 26 12 12 0 22 7 22 15 0 7 3 11 8 9 4 -3 13 1
20 9 7 8 9 14 5 14 -4 0 2 7 14 15 12 9 20 22 17 29 -3 7 1 20 9 28 10 10 12
20 5 31 -5 9 -5 17 0 17 4 0 6 23 2 50 -4 28 -2 50 2 50 5 0 6 6 1 13 -4 6 -8
18 -10 26 -1 8 -9 18 -17 23 -9 5 -16 14 -16 21 0 7 -9 18 -21 25 -16 11 -18
16 -9 28 10 11 10 14 0 14 -10 0 -10 3 -1 14 9 11 9 15 -1 19 -11 4 -10 6 0 6
7 1 10 6 7 11 -3 6 -1 10 6 10 7 0 9 3 6 7 -4 3 -1 13 6 21 9 12 9 16 0 19 -9
3 -10 10 -3 24 6 10 7 19 3 19 -4 0 -13 11 -20 25 -8 19 -8 25 0 25 8 0 7 4
-2 9 -11 7 -11 9 0 14 10 4 8 6 -4 6 -10 1 -15 6 -12 11 3 6 1 10 -5 10 -6 0
-8 5 -4 12 4 7 3 8 -4 4 -6 -4 -18 6 -27 24 -8 16 -18 30 -21 30 -3 0 -2 -6 1
-12 4 -7 0 -5 -8 5 -8 9 -21 17 -30 17 -8 0 -17 4 -19 9 -1 5 -19 11 -38 13
-19 1 -38 7 -41 12 -4 4 -16 3 -28 -3 -11 -7 -21 -8 -21 -3 0 5 -7 9 -15 9 -8
0 -15 -3 -15 -7z m-836 -186 c3 -8 2 -12 -4 -9 -6 3 -10 10 -10 16 0 14 7 11
14 -7z"/>
</g>
</svg>
