<?xml version="1.0" encoding="UTF-8"?>
<svg xmlns="http://www.w3.org/2000/svg" xmlns:xlink="http://www.w3.org/1999/xlink" width="66px" height="43px" viewBox="0 0 65 43" version="1.1">
<g id="surface1">
<path style=" stroke:none;fill-rule:nonzero;fill:rgb(0%,0%,0%);fill-opacity:1;" d="M 53 3.214844 C 52.222656 3.597656 51.265625 4.226562 50.886719 4.632812 C 50.128906 5.421875 48.503906 8.726562 48.082031 10.324219 C 47.925781 10.863281 47.527344 11.605469 47.191406 11.964844 C 46.589844 12.550781 46.433594 12.59375 44.476562 12.640625 C 43.339844 12.660156 41.648438 12.683594 40.734375 12.707031 C 39.109375 12.75 38.242188 13.019531 36.796875 13.945312 C 36.417969 14.191406 36.238281 14.214844 36.039062 14.011719 C 35.839844 13.808594 35.90625 13.3125 36.375 11.941406 C 37.085938 9.761719 37.085938 8.949219 36.484375 7.265625 C 35.882812 5.644531 35.347656 5.039062 33.945312 4.363281 C 32.722656 3.777344 30.898438 3.664062 28.269531 4.046875 C 21.925781 4.949219 20.234375 5.914062 18.585938 9.558594 C 18.164062 10.457031 17.71875 11.289062 17.542969 11.378906 C 17.386719 11.492188 16.25 11.648438 15.027344 11.738281 C 12.242188 11.917969 11.332031 12.121094 9.550781 12.976562 C 5.230469 15.046875 2.492188 19.160156 1.871094 24.582031 C 1.601562 26.851562 2.761719 30.40625 4.25 31.914062 C 6.433594 34.117188 10.507812 34.65625 14.292969 33.238281 C 14.757812 33.058594 15.179688 33.128906 16.339844 33.597656 C 18.875 34.632812 21.527344 34.230469 23.527344 32.519531 C 24.351562 31.824219 25.375 29.867188 25.375 29.011719 C 25.375 28.675781 25.554688 28.246094 25.777344 28.023438 C 26.179688 27.683594 26.222656 27.683594 26.554688 28.066406 C 26.777344 28.292969 26.933594 28.605469 26.933594 28.765625 C 26.933594 29.328125 28.070312 31.238281 28.761719 31.824219 L 29.496094 32.453125 L 29.496094 34.722656 C 29.496094 36.769531 29.5625 37.085938 30.097656 38.007812 C 30.898438 39.402344 31.722656 40.121094 33.277344 40.863281 C 35.125 41.71875 36.820312 41.71875 38.53125 40.863281 C 39.980469 40.167969 40.734375 39.199219 41.425781 37.199219 C 41.738281 36.253906 42.207031 35.535156 43.027344 34.679688 C 43.652344 34.050781 44.296875 33.507812 44.453125 33.507812 C 44.609375 33.507812 45.253906 33.757812 45.902344 34.050781 C 47.347656 34.703125 48.527344 35.082031 49.128906 35.082031 C 49.683594 35.082031 51.53125 34.296875 52.378906 33.667969 C 53.246094 33.058594 54.292969 30.699219 55.917969 25.683594 C 56.695312 23.253906 57.429688 21.410156 57.675781 21.164062 C 57.921875 20.9375 58.722656 20.578125 59.433594 20.375 C 61.929688 19.65625 62.972656 18.171875 62.996094 15.335938 C 62.996094 13.652344 62.707031 12.730469 61.839844 11.761719 C 61.394531 11.265625 61.371094 10.34375 61.773438 8.410156 C 61.949219 7.554688 61.417969 5.847656 60.59375 4.632812 C 59.746094 3.375 57.722656 2.472656 55.828125 2.496094 C 54.738281 2.496094 54.113281 2.652344 53 3.214844 Z M 57.542969 6.566406 C 57.898438 6.902344 57.988281 7.265625 57.964844 8.386719 C 57.964844 9.558594 57.808594 10.097656 57.03125 11.695312 C 56.007812 13.71875 55.984375 14.304688 56.851562 14.078125 C 57.652344 13.875 58.097656 14.460938 58.097656 15.699219 C 58.097656 16.28125 58.011719 16.867188 57.921875 17.023438 C 57.832031 17.160156 57.164062 17.382812 56.429688 17.519531 C 55.695312 17.652344 54.984375 17.902344 54.847656 18.058594 C 54.714844 18.195312 54.113281 19.835938 53.535156 21.703125 C 51.199219 29.144531 50.621094 30.585938 49.773438 31.148438 C 49.128906 31.574219 48.328125 31.484375 47.214844 30.789062 C 46.523438 30.382812 46.480469 30.269531 46.589844 29.394531 C 46.902344 26.71875 47.613281 22.871094 48.214844 20.734375 C 48.617188 19.320312 48.484375 19.027344 47.546875 19.207031 C 47.082031 19.296875 46.679688 19.230469 46.414062 19.003906 C 46.167969 18.824219 45.8125 18.667969 45.589844 18.667969 C 44.875 18.667969 42.695312 22.289062 40.625 26.921875 L 39.800781 28.765625 L 40.378906 29.460938 C 41.292969 30.5625 41.160156 31.328125 39.867188 32.722656 C 39 33.644531 38.667969 34.230469 38.289062 35.511719 C 37.953125 36.566406 37.597656 37.265625 37.242188 37.558594 C 35.683594 38.792969 32.945312 37.242188 32.945312 35.152344 C 32.945312 34.8125 33.390625 33.597656 33.945312 32.496094 C 34.480469 31.371094 34.949219 30.339844 34.949219 30.179688 C 34.949219 30 34.527344 29.910156 33.5 29.910156 C 32.144531 29.910156 32.03125 29.867188 31.1875 29.054688 C 30.183594 28.089844 29.917969 26.964844 30.140625 24.671875 C 30.472656 21.410156 30.542969 19.386719 30.320312 18.644531 C 29.960938 17.316406 30.496094 16.640625 31.898438 16.640625 C 33.722656 16.640625 35.394531 18.035156 35.394531 19.519531 C 35.394531 19.972656 35.082031 21.253906 34.726562 22.378906 C 34.347656 23.480469 34.058594 24.582031 34.058594 24.785156 C 34.058594 25.796875 35.105469 24.714844 35.949219 22.828125 C 37.417969 19.566406 38.332031 17.835938 38.933594 17.09375 C 39.578125 16.328125 39.625 16.304688 41.449219 16.261719 C 42.472656 16.238281 43.675781 16.191406 44.140625 16.171875 C 44.609375 16.171875 45.121094 16.28125 45.320312 16.441406 C 45.632812 16.710938 46.5 16.441406 48.328125 15.519531 C 48.527344 15.40625 49.082031 15.226562 49.574219 15.089844 C 50.53125 14.820312 50.554688 14.753906 51.222656 12.03125 C 51.597656 10.503906 52.847656 7.847656 53.46875 7.265625 C 54.9375 5.890625 56.5625 5.621094 57.542969 6.566406 Z M 32.699219 7.78125 C 33.257812 8.253906 33.390625 8.523438 33.390625 9.289062 C 33.390625 10.570312 32.65625 11.964844 31.363281 13.132812 C 30.273438 14.125 30.050781 14.214844 27.824219 14.4375 C 27.402344 14.484375 27.113281 14.84375 26.445312 16.171875 C 25.976562 17.070312 25.667969 17.902344 25.734375 18.015625 C 25.800781 18.125 26.378906 18.148438 27 18.082031 C 27.980469 17.96875 28.25 18.015625 28.78125 18.441406 C 29.652344 19.136719 29.539062 19.746094 28.316406 21.050781 C 27.335938 22.105469 27.136719 22.195312 25.621094 22.46875 L 23.996094 22.757812 L 23.460938 23.972656 C 23.171875 24.625 22.640625 26.109375 22.261719 27.28125 C 21.59375 29.328125 21.148438 30 20.101562 30.5625 C 19.011719 31.125 17.296875 30.585938 16.917969 29.574219 C 16.628906 28.785156 16.804688 27.796875 17.917969 24.0625 C 18.207031 23.140625 18.632812 21.613281 18.898438 20.691406 C 19.167969 19.769531 19.523438 18.554688 19.679688 17.992188 C 19.855469 17.429688 20.210938 16.171875 20.480469 15.179688 C 21.636719 10.863281 22.394531 9.289062 23.617188 8.636719 C 24.820312 8.027344 26.332031 7.644531 27.824219 7.625 C 28.625 7.625 29.515625 7.511719 29.828125 7.421875 C 30.984375 7.039062 31.988281 7.175781 32.699219 7.78125 Z M 17.25 15.382812 C 18.121094 15.765625 18.476562 16.328125 18.476562 17.339844 C 18.476562 18.621094 15.804688 20.691406 14.15625 20.691406 C 13.625 20.691406 12.109375 22.332031 11.796875 23.253906 C 11.664062 23.726562 11.597656 24.332031 11.664062 24.605469 C 11.84375 25.324219 13.042969 25.863281 14.445312 25.863281 C 15.402344 25.863281 15.625 25.953125 15.9375 26.425781 C 16.273438 26.941406 16.273438 27.03125 15.894531 27.683594 C 14.914062 29.347656 12.421875 30.585938 10.082031 30.585938 C 7.054688 30.5625 5.34375 28.652344 5.34375 25.300781 C 5.34375 22.601562 6.878906 19.207031 8.882812 17.519531 C 9.773438 16.777344 12.464844 15.382812 13.355469 15.226562 C 14.601562 15 16.539062 15.089844 17.25 15.382812 Z M 17.25 15.382812 "/>
</g>
</svg>
