<?xml version="1.0" standalone="no"?>
<!DOCTYPE svg PUBLIC "-//W3C//DTD SVG 20010904//EN"
 "http://www.w3.org/TR/2001/REC-SVG-20010904/DTD/svg10.dtd">
<svg version="1.0" xmlns="http://www.w3.org/2000/svg"
 width="292.000000pt" height="191.000000pt" viewBox="0 0 292.000000 191.000000"
 preserveAspectRatio="xMidYMid meet">

<g transform="translate(0.000000,191.000000) scale(0.100000,-0.100000)"
fill="#000000" stroke="none">
<path d="M2381 1767 c-35 -17 -78 -45 -95 -63 -34 -35 -107 -182 -126 -253 -7
-24 -25 -57 -40 -73 -27 -26 -34 -28 -122 -30 -51 -1 -127 -2 -168 -3 -73 -2
-112 -14 -177 -55 -17 -11 -25 -12 -34 -3 -9 9 -6 31 15 92 32 97 32 133 5
208 -27 72 -51 99 -114 129 -55 26 -137 31 -255 14 -285 -40 -361 -83 -435
-245 -19 -40 -39 -77 -47 -81 -7 -5 -58 -12 -113 -16 -125 -8 -166 -17 -246
-55 -194 -92 -317 -275 -345 -516 -12 -101 40 -259 107 -326 98 -98 281 -122
451 -59 21 8 40 5 92 -16 114 -46 233 -28 323 48 37 31 83 118 83 156 0 15 8
34 18 44 18 15 20 15 35 -2 10 -10 17 -24 17 -31 0 -25 51 -110 82 -136 l33
-28 0 -101 c0 -91 3 -105 27 -146 36 -62 73 -94 143 -127 83 -38 159 -38 236
0 65 31 99 74 130 163 14 42 35 74 72 112 28 28 57 52 64 52 7 0 36 -11 65
-24 65 -29 118 -46 145 -46 25 0 108 35 146 63 39 27 86 132 159 355 35 108
68 190 79 201 11 10 47 26 79 35 112 32 159 98 160 224 0 75 -13 116 -52 159
-20 22 -21 63 -3 149 8 38 -16 114 -53 168 -38 56 -129 96 -214 95 -49 0 -77
-7 -127 -32z m204 -149 c16 -15 20 -31 19 -81 0 -52 -7 -76 -42 -147 -46 -90
-47 -116 -8 -106 36 9 56 -17 56 -72 0 -26 -4 -52 -8 -59 -4 -6 -34 -16 -67
-22 -33 -6 -65 -17 -71 -24 -6 -6 -33 -79 -59 -162 -105 -331 -131 -395 -169
-420 -29 -19 -65 -15 -115 16 -31 18 -33 23 -28 62 14 119 46 290 73 385 18
63 12 76 -30 68 -21 -4 -39 -1 -51 9 -11 8 -27 15 -37 15 -32 0 -130 -161
-223 -367 l-37 -82 26 -31 c41 -49 35 -83 -23 -145 -39 -41 -54 -67 -71 -124
-15 -47 -31 -78 -47 -91 -70 -55 -193 14 -193 107 0 15 20 69 45 118 24 50 45
96 45 103 0 8 -19 12 -65 12 -61 0 -66 2 -104 38 -45 43 -57 93 -47 195 15
145 18 235 8 268 -16 59 8 89 71 89 82 0 157 -62 157 -128 0 -20 -14 -77 -30
-127 -17 -49 -30 -98 -30 -107 0 -45 47 3 85 87 66 145 107 222 134 255 29 34
31 35 113 37 46 1 100 3 121 4 21 0 44 -5 53 -12 14 -12 53 0 135 41 9 5 34
13 56 19 43 12 44 15 74 136 17 68 73 186 101 212 66 61 139 73 183 31z
m-1116 -54 c25 -21 31 -33 31 -67 0 -57 -33 -119 -91 -171 -49 -44 -59 -48
-159 -58 -19 -2 -32 -18 -62 -77 -21 -40 -35 -77 -32 -82 3 -5 29 -6 57 -3 44
5 56 3 80 -16 39 -31 34 -58 -21 -116 -44 -47 -53 -51 -121 -63 l-73 -13 -24
-54 c-13 -29 -37 -95 -54 -147 -30 -91 -50 -121 -97 -146 -49 -25 -126 -1
-143 44 -13 35 -5 79 45 245 13 41 32 109 44 150 12 41 28 95 35 120 8 25 24
81 36 125 52 192 86 262 141 291 54 27 122 44 189 45 36 0 76 5 90 9 52 17 97
11 129 -16z m-694 -338 c39 -17 55 -42 55 -87 0 -57 -120 -149 -194 -149 -24
0 -92 -73 -106 -114 -6 -21 -9 -48 -6 -60 8 -32 62 -56 125 -56 43 0 53 -4 67
-25 15 -23 15 -27 -2 -56 -44 -74 -156 -129 -261 -129 -136 1 -213 86 -213
235 0 120 69 271 159 346 40 33 161 95 201 102 56 10 143 6 175 -7z"/>
</g>
</svg>
